<?xml version="1.0" encoding="UTF-8" standalone="no"?><!-- Generator: Gravit.io --><svg xmlns="http://www.w3.org/2000/svg" xmlns:xlink="http://www.w3.org/1999/xlink" style="isolation:isolate" viewBox="0 0 1944 643" width="1944pt" height="643pt"><defs><clipPath id="_clipPath_bL4Ma6CX7hV7oaXePngwFfDOAywba1QT"><rect width="1944" height="643"/></clipPath></defs><g clip-path="url(#_clipPath_bL4Ma6CX7hV7oaXePngwFfDOAywba1QT)"><g><path d=" M 692.5 13 C 716.665 11.576 742.872 13.536 764 26.5 L 764 26.5 L 763.5 138 Q 745.667 124.333 715.5 123 Q 692.198 125.198 682 140.5 Q 666.809 178.309 673 237.5 L 764 238.5 L 763.5 344 L 673 344.5 L 672.5 601 L 545 600.5 L 544.5 344 L 500 343.5 L 500.5 238 L 545 237.5 Q 533.678 106.678 599.5 53 Q 633.221 20.221 692.5 13 Z  M 870.5 22 Q 913.442 23.058 932 48.5 Q 949.255 66.745 950 101.5 Q 945.75 138.25 922.5 156 Q 904.776 172.776 870.5 173 Q 835.332 168.668 818 146.5 Q 800.745 128.255 800 93.5 Q 804.25 56.75 827.5 39 Q 843.167 24.667 870.5 22 Z " fill-rule="evenodd" fill="rgb(93,34,161)"/><path d=" M 1270.5 230 Q 1346.836 231.164 1381 274.5 Q 1419.022 320.978 1410 414.5 L 1410 600.5 L 1282.5 601 L 1282 440.5 C 1285.755 411.37 1286.225 377.567 1269.035 352.215 C 1259.708 338.461 1246.449 331.752 1229.92 330.33 C 1207.583 328.407 1182.193 336.489 1169 355.5 C 1151.372 380.902 1152.495 417.538 1156 446.5 L 1156 446.5 L 1155.5 601 L 1028 600.5 L 1028.5 238 L 1156 238.5 L 1156.5 283 L 1175.5 263 C 1200.422 238.287 1236.53 230.613 1270.5 230 L 1270.5 230 Z " fill="rgb(93,34,161)"/><path d=" M 811.5 238 L 939 238.5 L 938.5 601 L 811 600.5 L 811.5 238 Z " fill="rgb(93,34,161)"/></g><circle vector-effect="non-scaling-stroke" cx="874.9999999999997" cy="97.49999999999999" r="76.5" fill="rgb(106,233,178)"/><path d=" M 188.5 227 C 235.372 225.455 287.597 234.173 318.5 273 L 318.5 273 L 319.5 238 L 447 238.5 L 446.5 601 L 319 600.5 L 318.5 562 L 299.5 582 Q 263.536 615.536 190.5 612 Q 111.494 600.506 71 550.5 Q 24.753 504.247 24 412.5 Q 29.7 317.7 85.5 273 Q 122.906 235.906 188.5 227 Z  M 169 416.74 C 169 372.862 204.623 337.24 248.5 337.24 C 292.377 337.24 328 372.862 328 416.74 C 328 460.617 292.377 496.24 248.5 496.24 C 204.623 496.24 169 460.617 169 416.74 Z " fill-rule="evenodd" fill="rgb(93,34,161)"/><path d=" M 1687.5 225 Q 1818.301 222.699 1874 295.5 Q 1915.189 338.311 1919 419 L 1919 421.5 Q 1915.016 514.516 1861.5 558 Q 1803.319 618.819 1679.5 614 Q 1582.946 606.054 1534 550.5 Q 1485.629 504.871 1483 413.5 Q 1490.051 324.551 1542.5 281 Q 1592.924 230.923 1687.5 225 Z  M 1616.76 419.642 C 1616.76 374.319 1653.557 337.522 1698.88 337.522 C 1744.203 337.522 1781 374.319 1781 419.642 C 1781 464.965 1744.203 501.761 1698.88 501.761 C 1653.557 501.761 1616.76 464.965 1616.76 419.642 Z " fill-rule="evenodd" fill="rgb(93,34,161)"/></g></svg>